<svg width="32" height="29" viewBox="0 0 32 29" fill="none" xmlns="http://www.w3.org/2000/svg">
<path d="M15.5333 14.2315H5.67848M8.20848 16.5943L6.25974 15.2789C6.07869 15.1562 5.93191 14.9979 5.8309 14.8165C5.72989 14.635 5.67737 14.4353 5.67737 14.2328C5.67737 14.0303 5.72989 13.8306 5.8309 13.6491C5.93191 13.4677 6.07869 13.3094 6.25974 13.1866L8.20848 11.8686M21.9546 8.45828V20.0046M11.9521 17.8963C13.7592 23.8784 18.8584 23.4043 18.8584 23.4043C18.8584 23.4043 23.9786 23.8784 25.7646 17.8963C26.4664 15.4929 26.4664 12.9699 25.7646 10.5666C23.9725 4.58446 18.8584 5.05869 18.8584 5.05869C18.8584 5.05869 13.7382 4.58446 11.9521 10.5666" stroke="currentColor" stroke-width="2" stroke-linecap="round" stroke-linejoin="round"/>
</svg>
